<svg width="12" height="20" xmlns="http://www.w3.org/2000/svg">

 <g>
  <title>background</title>
  <rect fill="none" id="canvas_background" height="402" width="582" y="-1" x="-1"/>
 </g>
 <g>
  <title>Layer 1</title>
  <g transform="rotate(-180 6.000000000000001,10) " stroke="null" fill-rule="evenodd" id="cdeg">
   <polygon stroke="null" fill="#DDDDDD" points="1.600000023841858,1.199999451637268 2.700000047683716,0.09999942779541016 9.300000190734863,0.09999942779541016 10.40000057220459,1.199999451637268 9.300000190734863,2.299999475479126 2.700000047683716,2.299999475479126 " id="a"/>
   <polygon stroke="null" fill="#DDDDDD" points="10.40000057220459,1.199999451637268 11.5,2.299999475479126 11.5,8.899999618530273 10.40000057220459,10 9.300000190734863,8.899999618530273 9.300000190734863,2.299999475479126 " id="b"/>
   <polygon stroke="null" fill="#FF0000" points="10.40000057220459,10 11.5,11.09999942779541 11.5,17.699999809265137 10.40000057220459,18.800000190734863 9.300000190734863,17.699999809265137 9.300000190734863,11.09999942779541 " id="c"/>
   <polygon stroke="null" fill="#FF0000" points="10.40000057220459,18.800000190734863 9.300000190734863,19.90000057220459 2.700000047683716,19.90000057220459 1.600000023841858,18.800000190734863 2.700000047683716,17.699999809265137 9.300000190734863,17.699999809265137 " id="d"/>
   <polygon stroke="null" fill="#FF0000" points="1.600000023841858,18.800000190734863 0.5,17.699999809265137 0.5,11.09999942779541 1.600000023841858,10 2.700000047683716,11.09999942779541 2.700000047683716,17.699999809265137 " id="e"/>
   <polygon stroke="null" fill="#DDDDDD" points="1.600000023841858,10 0.5,8.899999618530273 0.5,2.299999475479126 1.600000023841858,1.199999451637268 2.700000047683716,2.299999475479126 2.700000047683716,8.899999618530273 " id="f"/>
   <polygon stroke="null" fill="#FF0000" points="1.600000023841858,10 2.700000047683716,8.899999618530273 9.300000190734863,8.899999618530273 10.40000057220459,10 9.300000190734863,11.09999942779541 2.700000047683716,11.09999942779541 " id="g"/>
  </g>
 </g>
</svg>
